<?xml version="1.0" encoding="UTF-8" standalone="no"?>
<!DOCTYPE svg PUBLIC "-//W3C//DTD SVG 1.1//EN" "http://www.w3.org/Graphics/SVG/1.1/DTD/svg11.dtd">
<svg version="1.1" xmlns="http://www.w3.org/2000/svg" xmlns:xlink="http://www.w3.org/1999/xlink" preserveAspectRatio="xMidYMid meet" viewBox="0 0 640 640" width="640" height="640"><defs><path d="M575.58 334.19C587.02 332.17 587.02 317.95 575.58 315.94C573.16 315.51 553.78 312.09 551.35 311.66C527.48 307.45 508.83 291.23 503.99 270.46C503.5 268.35 499.57 251.5 499.07 249.39C496.76 239.44 480.41 239.44 478.09 249.39C477.6 251.5 473.67 268.35 473.18 270.46C468.34 291.23 449.69 307.45 425.81 311.66C423.39 312.09 404.01 315.51 401.59 315.94C390.15 317.95 390.15 332.17 401.59 334.19C404.01 334.62 423.39 338.03 425.81 338.46C449.69 342.67 468.34 358.9 473.18 379.66C473.67 381.77 477.6 398.63 478.09 400.74C480.41 410.68 496.76 410.68 499.07 400.74C499.57 398.63 503.5 381.77 503.99 379.66C508.83 358.9 527.48 342.67 551.35 338.46C556.2 337.61 573.16 334.62 575.58 334.19Z" id="a3Cp2K9WG"></path><path d="M308.04 232.85C323.84 230.07 323.84 210.42 308.04 207.64C304.7 207.05 277.93 202.33 274.58 201.74C241.6 195.92 215.83 173.5 209.14 144.82C208.47 141.91 203.04 118.62 202.36 115.71C199.16 101.97 176.58 101.97 173.38 115.71C172.7 118.62 167.27 141.91 166.59 144.82C159.9 173.5 134.13 195.92 101.16 201.74C97.81 202.33 71.04 207.05 67.69 207.64C51.89 210.42 51.89 230.07 67.69 232.85C71.04 233.44 97.81 238.16 101.16 238.75C134.13 244.57 159.9 266.99 166.59 295.67C167.27 298.58 172.7 321.87 173.38 324.78C176.58 338.52 199.16 338.52 202.36 324.78C203.04 321.87 208.47 298.58 209.14 295.67C215.83 266.99 241.6 244.57 274.58 238.75C281.27 237.57 304.7 233.44 308.04 232.85Z" id="a11zXDlu9"></path><path d="M371.7 436.4C378.46 435.03 378.23 426.59 371.41 425.56C369.96 425.34 358.4 423.61 356.95 423.39C342.71 421.26 331.36 411.9 328.15 399.65C327.83 398.4 325.22 388.45 324.9 387.21C323.36 381.33 313.65 381.58 312.44 387.53C312.18 388.78 310.12 398.86 309.86 400.11C307.32 412.52 296.51 422.44 282.4 425.3C280.97 425.59 269.51 427.92 268.08 428.21C261.32 429.58 261.55 438.02 268.38 439.05C269.82 439.26 281.39 441 282.83 441.22C297.08 443.35 308.42 452.71 311.63 464.96C311.96 466.21 314.56 476.16 314.89 477.4C316.43 483.27 326.13 483.03 327.35 477.08C327.6 475.82 329.66 465.75 329.92 464.5C332.46 452.09 343.28 442.17 357.38 439.31C360.25 438.72 370.27 436.69 371.7 436.4Z" id="c9X8i7SDm"></path><path d="M120.9 325.06C120.9 431.58 209.99 517.93 319.89 517.93C429.79 517.93 518.88 431.58 518.88 325.06C518.77 218.59 429.74 132.31 319.89 132.2C209.99 132.2 120.9 218.55 120.9 325.06ZM319.89 159.75C360.21 159.74 399.21 173.63 429.92 198.94C405.9 222.23 213.73 408.48 189.71 431.76C128.82 362.22 137.62 258 209.37 198.98C240.23 173.6 279.41 159.69 319.89 159.75ZM319.89 490.38C279.58 490.39 240.58 476.49 209.86 451.18C233.89 427.9 426.05 241.65 450.08 218.37C510.97 287.91 502.17 392.13 430.42 451.14C399.55 476.53 360.37 490.44 319.89 490.38Z" id="cLnBxJ0ph"></path></defs><g><g><g><use xlink:href="#a3Cp2K9WG" opacity="1" fill="#f9d366" fill-opacity="1"></use><g><use xlink:href="#a3Cp2K9WG" opacity="1" fill-opacity="0" stroke="#000000" stroke-width="1" stroke-opacity="0"></use></g></g><g><use xlink:href="#a11zXDlu9" opacity="1" fill="#f9d366" fill-opacity="1"></use><g><use xlink:href="#a11zXDlu9" opacity="1" fill-opacity="0" stroke="#000000" stroke-width="1" stroke-opacity="0"></use></g></g><g><use xlink:href="#c9X8i7SDm" opacity="1" fill="#f9d366" fill-opacity="1"></use><g><use xlink:href="#c9X8i7SDm" opacity="1" fill-opacity="0" stroke="#000000" stroke-width="1" stroke-opacity="0"></use></g></g><g><use xlink:href="#cLnBxJ0ph" opacity="1" fill="#000000" fill-opacity="1"></use><g><use xlink:href="#cLnBxJ0ph" opacity="1" fill-opacity="0" stroke="#000000" stroke-width="1" stroke-opacity="0"></use></g></g></g></g></svg>