<?xml version="1.0" encoding="UTF-8" standalone="no"?>
<!DOCTYPE svg PUBLIC "-//W3C//DTD SVG 1.1//EN" "http://www.w3.org/Graphics/SVG/1.1/DTD/svg11.dtd">
<svg version="1.1" xmlns="http://www.w3.org/2000/svg" xmlns:xlink="http://www.w3.org/1999/xlink" preserveAspectRatio="xMidYMid meet" viewBox="0 0 640 640" width="640" height="640"><defs><path d="M417.14 202.65C470.81 202.65 514.29 244.96 514.29 297.15C514.3 441.68 320 513.4 320 517.38C320 517.38 320 517.38 320 517.38C320 513.4 125.71 441.68 125.71 297.14C125.71 244.95 169.2 202.64 222.86 202.64C276.51 202.64 320 239.71 320 291.91C320 239.72 363.49 202.65 417.14 202.65Z" id="d62EgcEe53"></path><path d="M45.71 45.69C20.46 45.69 0 66.14 0 91.38C0 137.1 0 502.86 0 548.58C0 573.8 20.46 594.29 45.71 594.29C100.57 594.29 539.39 594.29 594.25 594.29C619.45 594.29 640 573.78 640 548.58C640 502.86 640 137.1 640 91.38C640 66.14 619.45 45.69 594.25 45.69C484.54 45.69 100.57 45.69 45.71 45.69ZM171.44 102.87C171.44 115.49 161.19 125.67 148.58 125.67C135.9 125.67 125.67 115.49 125.67 102.87C125.67 90.19 135.9 80.02 148.58 80.02C161.19 80.02 171.44 90.19 171.44 102.87ZM102.81 102.87C102.81 115.49 92.6 125.67 79.97 125.67C67.33 125.67 57.1 115.49 57.1 102.87C57.1 90.19 67.33 80.02 79.97 80.02C92.6 80.02 102.81 90.19 102.81 102.87ZM45.71 548.6L45.71 160.48C374.83 160.48 557.68 160.48 594.25 160.48C594.25 160.48 594.25 548.6 594.25 548.6C521.11 548.6 338.26 548.6 45.71 548.6Z" id="e2QZTVsYHj"></path></defs><g><g><g><use xlink:href="#d62EgcEe53" opacity="1" fill="#a20909" fill-opacity="1"></use></g><g><use xlink:href="#e2QZTVsYHj" opacity="1" fill="#000000" fill-opacity="1"></use><g><use xlink:href="#e2QZTVsYHj" opacity="1" fill-opacity="0" stroke="#000000" stroke-width="1" stroke-opacity="0"></use></g></g></g></g></svg>