<?xml version="1.0" encoding="UTF-8" standalone="no"?>
<!DOCTYPE svg PUBLIC "-//W3C//DTD SVG 1.1//EN" "http://www.w3.org/Graphics/SVG/1.1/DTD/svg11.dtd">
<svg version="1.1" xmlns="http://www.w3.org/2000/svg" xmlns:xlink="http://www.w3.org/1999/xlink" preserveAspectRatio="xMidYMid meet" viewBox="0 0 640 640" width="640" height="640"><defs><path d="M192.06 238.91L192.06 257.14L256.02 284.48L256.02 284.84L192.06 312.17L192.06 330.38L274.77 292.56L274.77 276.73L192.06 238.91Z" id="c9hJjM3LQ"></path><path d="M156.17 159.14C141.95 159.14 130.42 170.65 130.42 184.88C130.42 210.64 130.42 416.71 130.42 442.47C130.42 456.68 141.95 468.22 156.17 468.22C187.07 468.22 434.32 468.22 465.22 468.22C479.42 468.22 491 456.67 491 442.47C491 416.71 491 210.64 491 184.88C491 170.65 479.42 159.14 465.22 159.14C403.41 159.14 187.07 159.14 156.17 159.14ZM227.01 191.35C227.01 198.46 221.23 204.19 214.13 204.19C206.98 204.19 201.22 198.46 201.22 191.35C201.22 184.2 206.98 178.47 214.13 178.47C221.23 178.47 227.01 184.2 227.01 191.35ZM188.34 191.35C188.34 198.46 182.59 204.19 175.47 204.19C168.35 204.19 162.59 198.46 162.59 191.35C162.59 184.2 168.35 178.47 175.47 178.47C182.59 178.47 188.34 184.2 188.34 191.35ZM156.17 442.48L156.17 223.81C341.6 223.81 444.62 223.81 465.22 223.81C465.22 223.81 465.22 442.48 465.22 442.48C424.01 442.48 321 442.48 156.17 442.48Z" id="c5EAsmg44A"></path><path d="M392.34 386.34C401.44 384.49 401.44 371.47 392.34 369.63C391.65 369.49 386.13 368.37 385.44 368.23C368.05 364.7 354.46 351.12 350.94 333.73C350.8 333.04 349.68 327.52 349.54 326.83C347.69 317.72 334.68 317.72 332.83 326.83C332.69 327.52 331.57 333.04 331.43 333.73C327.91 351.12 314.32 364.7 296.93 368.23C296.24 368.37 290.72 369.49 290.03 369.63C280.93 371.47 280.93 384.49 290.03 386.34C290.72 386.48 296.24 387.6 296.93 387.74C314.32 391.26 327.91 404.85 331.43 422.23C331.57 422.92 332.69 428.44 332.83 429.13C334.68 438.24 347.69 438.24 349.54 429.13C349.68 428.44 350.8 422.92 350.94 422.23C354.46 404.85 368.05 391.26 385.44 387.74C386.82 387.46 391.65 386.48 392.34 386.34Z" id="crrX6LvMr"></path><path d="M171.64 139.72C181.41 137.74 181.41 123.78 171.64 121.8C169.57 121.38 153.02 118.02 150.95 117.6C130.56 113.47 114.63 97.53 110.49 77.14C110.07 75.07 106.72 58.52 106.3 56.45C104.32 46.68 90.36 46.68 88.38 56.45C87.96 58.52 84.6 75.07 84.18 77.14C80.05 97.53 64.11 113.47 43.72 117.6C41.65 118.02 25.1 121.38 23.03 121.8C13.26 123.78 13.26 137.74 23.03 139.72C25.1 140.14 41.65 143.49 43.72 143.91C64.11 148.04 80.05 163.98 84.18 184.37C84.6 186.44 87.96 202.99 88.38 205.06C90.36 214.83 104.32 214.83 106.3 205.06C106.72 202.99 110.07 186.44 110.49 184.37C114.63 163.98 130.56 148.05 150.95 143.91C155.09 143.07 169.57 140.14 171.64 139.72Z" id="a1JmUiwru8"></path><path d="M621.77 287.62C633.2 285.3 633.2 268.96 621.77 266.65C619.35 266.16 599.97 262.23 597.55 261.74C573.69 256.9 555.04 238.25 550.2 214.39C549.71 211.97 545.79 192.6 545.29 190.17C542.98 178.74 526.64 178.74 524.32 190.17C523.83 192.6 519.9 211.97 519.41 214.39C514.57 238.25 495.93 256.9 472.06 261.74C469.64 262.23 450.27 266.16 447.85 266.65C436.42 268.96 436.42 285.3 447.85 287.62C450.27 288.11 469.64 292.04 472.06 292.53C495.93 297.37 514.57 316.02 519.41 339.88C519.9 342.3 523.83 361.67 524.32 364.09C526.64 375.52 542.98 375.52 545.29 364.09C545.79 361.67 549.71 342.3 550.2 339.88C555.04 316.02 573.69 297.37 597.55 292.53C602.4 291.55 619.35 288.11 621.77 287.62Z" id="czN9yRqMq"></path><path d="M358.76 275.95C358.76 275.95 358.76 275.95 358.76 275.95C358.76 286.38 358.76 292.17 358.76 293.33C358.76 293.33 358.76 293.33 358.76 293.33C331.73 293.33 316.71 293.33 313.71 293.33C313.71 293.33 313.71 293.33 313.71 293.33C313.71 282.9 313.71 277.11 313.71 275.95C313.71 275.95 313.71 275.95 313.71 275.95C340.74 275.95 355.75 275.95 358.76 275.95Z" id="eklT3JRsN"></path></defs><g><g><g><use xlink:href="#c9hJjM3LQ" opacity="1" fill="#000000" fill-opacity="1"></use><g><use xlink:href="#c9hJjM3LQ" opacity="1" fill-opacity="0" stroke="#000000" stroke-width="1" stroke-opacity="0"></use></g></g><g><use xlink:href="#c5EAsmg44A" opacity="1" fill="#000000" fill-opacity="1"></use><g><use xlink:href="#c5EAsmg44A" opacity="1" fill-opacity="0" stroke="#000000" stroke-width="1" stroke-opacity="0"></use></g></g><g><use xlink:href="#crrX6LvMr" opacity="1" fill="#f9d366" fill-opacity="1"></use><g><use xlink:href="#crrX6LvMr" opacity="1" fill-opacity="0" stroke="#000000" stroke-width="1" stroke-opacity="0"></use></g></g><g><use xlink:href="#a1JmUiwru8" opacity="1" fill="#f9d366" fill-opacity="1"></use><g><use xlink:href="#a1JmUiwru8" opacity="1" fill-opacity="0" stroke="#000000" stroke-width="1" stroke-opacity="0"></use></g></g><g><use xlink:href="#czN9yRqMq" opacity="1" fill="#f9d366" fill-opacity="1"></use><g><use xlink:href="#czN9yRqMq" opacity="1" fill-opacity="0" stroke="#000000" stroke-width="1" stroke-opacity="0"></use></g></g><g><use xlink:href="#eklT3JRsN" opacity="1" fill="#000000" fill-opacity="1"></use><g><use xlink:href="#eklT3JRsN" opacity="1" fill-opacity="0" stroke="#000000" stroke-width="1" stroke-opacity="0"></use></g></g></g></g></svg>