<?xml version="1.0" encoding="iso-8859-1"?>
<!-- Generator: Adobe Illustrator 19.0.0, SVG Export Plug-In . SVG Version: 6.00 Build 0)  -->
<svg version="1.1" id="Capa_1" xmlns="http://www.w3.org/2000/svg" xmlns:xlink="http://www.w3.org/1999/xlink" x="0px" y="0px"
	 viewBox="0 0 512 512" style="enable-background:new 0 0 512 512;" xml:space="preserve">
<path style="fill:#F9D366;" d="M284.682,405.593l6.398-1.297c8.444-1.712,8.444-13.781,0-15.493l-6.398-1.297
	c-16.119-3.268-28.717-15.866-31.985-31.985l-1.297-6.398c-1.712-8.444-13.781-8.444-15.493,0l-1.297,6.398
	c-3.268,16.119-15.866,28.717-31.985,31.985l-6.398,1.297c-8.444,1.712-8.444,13.781,0,15.493l6.398,1.297
	c16.119,3.268,28.717,15.866,31.985,31.985l1.297,6.398c1.712,8.444,13.781,8.444,15.493,0l1.297-6.398
	C255.965,421.459,268.563,408.861,284.682,405.593z"/>
<g>
	<path style="fill:#DD8833;" d="M397.203,445.72c-4.267,0-7.726-3.459-7.726-7.726v-20.92c0-4.267,3.459-7.726,7.726-7.726
		s7.726,3.459,7.726,7.726v20.92C404.929,442.261,401.47,445.72,397.203,445.72z"/>
	<path style="fill:#DD8833;" d="M397.203,502.04c-4.267,0-7.726-3.459-7.726-7.726v-20.92c0-4.267,3.459-7.726,7.726-7.726
		s7.726,3.459,7.726,7.726v20.92C404.929,498.582,401.47,502.04,397.203,502.04z"/>
	<path style="fill:#DD8833;" d="M435.823,463.421h-20.92c-4.267,0-7.726-3.459-7.726-7.726s3.459-7.726,7.726-7.726h20.92
		c4.267,0,7.726,3.459,7.726,7.726S440.09,463.421,435.823,463.421z"/>
	<path style="fill:#DD8833;" d="M379.502,463.421h-20.92c-4.267,0-7.726-3.459-7.726-7.726s3.459-7.726,7.726-7.726h20.92
		c4.267,0,7.726,3.459,7.726,7.726S383.769,463.421,379.502,463.421z"/>
	<path style="fill:#DD8833;" d="M46.346,348.37c-4.267,0-7.726-3.459-7.726-7.726v-20.92c0-4.267,3.459-7.726,7.726-7.726
		s7.726,3.459,7.726,7.726v20.92C54.072,344.911,50.613,348.37,46.346,348.37z"/>
	<path style="fill:#DD8833;" d="M46.346,404.691c-4.267,0-7.726-3.459-7.726-7.726v-20.92c0-4.267,3.459-7.726,7.726-7.726
		s7.726,3.459,7.726,7.726v20.92C54.072,401.232,50.613,404.691,46.346,404.691z"/>
	<path style="fill:#DD8833;" d="M84.967,366.07h-20.92c-4.267,0-7.726-3.459-7.726-7.726s3.459-7.726,7.726-7.726h20.92
		c4.267,0,7.726,3.459,7.726,7.726S89.234,366.07,84.967,366.07z"/>
	<path style="fill:#DD8833;" d="M28.646,366.07H7.726c-4.267,0-7.726-3.459-7.726-7.726s3.459-7.726,7.726-7.726h20.92
		c4.267,0,7.726,3.459,7.726,7.726S32.913,366.07,28.646,366.07z"/>
	<path style="fill:#DD8833;" d="M398.204,46.332c-4.267,0-7.726-3.459-7.726-7.726v-20.92c0-4.267,3.459-7.726,7.726-7.726
		c4.267,0,7.726,3.459,7.726,7.726v20.92C405.93,42.872,402.472,46.332,398.204,46.332z"/>
	<path style="fill:#DD8833;" d="M398.204,102.652c-4.267,0-7.726-3.459-7.726-7.726V74.007c0-4.267,3.459-7.726,7.726-7.726
		c4.267,0,7.726,3.459,7.726,7.726v20.92C405.93,99.193,402.472,102.652,398.204,102.652z"/>
	<path style="fill:#DD8833;" d="M436.825,64.032h-20.92c-4.267,0-7.726-3.459-7.726-7.726s3.459-7.726,7.726-7.726h20.92
		c4.267,0,7.726,3.459,7.726,7.726S441.092,64.032,436.825,64.032z"/>
	<path style="fill:#DD8833;" d="M380.504,64.032h-20.92c-4.267,0-7.726-3.459-7.726-7.726s3.459-7.726,7.726-7.726h20.92
		c4.267,0,7.726,3.459,7.726,7.726S384.771,64.032,380.504,64.032z"/>
</g>
<g>
	<path style="fill:#F9D366;" d="M262.382,156.253l30.626-6.209c14.458-2.932,14.458-23.595,0-26.527l-30.626-6.209
		c-30.18-6.119-53.767-29.706-59.886-59.886l-6.209-30.626c-2.932-14.458-23.595-14.458-26.527,0l-6.209,30.626
		c-6.119,30.18-29.706,53.767-59.886,59.886l-30.626,6.209c-14.458,2.932-14.458,23.595,0,26.527l30.626,6.209
		c30.18,6.119,53.767,29.706,59.886,59.886l6.209,30.626c2.932,14.458,23.595,14.458,26.527,0l6.209-30.626
		C208.614,185.959,232.202,162.373,262.382,156.253z"/>
	<path style="fill:#F9D366;" d="M480.152,262.816l23.52-4.769c11.104-2.251,11.104-18.121,0-20.372l-23.52-4.769
		c-23.178-4.7-41.292-22.813-45.991-45.991l-4.769-23.52c-2.251-11.104-18.121-11.104-20.371,0l-4.769,23.52
		c-4.7,23.178-22.813,41.292-45.991,45.991l-23.52,4.769c-11.104,2.251-11.104,18.121,0,20.372l23.52,4.769
		c23.178,4.7,41.292,22.813,45.991,45.991l4.769,23.52c2.251,11.104,18.121,11.104,20.371,0l4.769-23.52
		C438.861,285.63,456.976,267.515,480.152,262.816z"/>
</g>
<g>
</g>
<g>
</g>
<g>
</g>
<g>
</g>
<g>
</g>
<g>
</g>
<g>
</g>
<g>
</g>
<g>
</g>
<g>
</g>
<g>
</g>
<g>
</g>
<g>
</g>
<g>
</g>
<g>
</g>
</svg>
